<svg width="350" height="315" xmlns="http://www.w3.org/2000/svg"><path fill="#f98012" d="M289.61 309.77V201.51c0-22.627-9.333-33.943-28-33.95-18.667-.007-28.02 11.31-28.06 33.95v108.26H178.4V201.51c0-22.627-9.19-33.943-27.57-33.95-18.7 0-28.033 11.317-28 33.95v108.26H67.67V195.12c0-23.62 8.2-41.497 24.6-53.63 14.44-10.833 33.96-16.25 58.56-16.25 24.94 0 43.313 6.397 55.12 19.19 10.173-12.793 28.713-19.19 55.62-19.19 24.6 0 44.113 5.417 58.54 16.25 16.4 12.127 24.603 30.003 24.61 53.63v114.65z"/><path fill="#333" d="m174.74 116.9 54.74-40-.7-2.44C130 86.57 85.08 95.15 0 144.47l.79 2.24 6.76.07c-.62 6.81-1.7 23.64-.32 48.95-9.44 27.32-.24 45.88 8.4 66.07 1.37-21 1.23-44-5.22-66.89-1.35-25.14-.24-41.67.37-48.1l56.4.54a258 258 0 0 0 1.67 33.06c50.4 17.71 101.09-.06 128-43.72-7.47-8.37-22.11-19.79-22.11-19.79z"/></svg>