<svg width="64" height="64" xmlns:xlink="http://www.w3.org/1999/xlink" xmlns="http://www.w3.org/2000/svg"><defs><path id="a" d="M.145.216H44.33V10.35H.145Z"/><path id="c" d="M0 .195h49.798v32.577H0Z"/><path id="e" d="M.066.199h112.671v25.196H.066Z"/></defs><g fill="none" fill-rule="evenodd"><g transform="translate(11.947 52.83)"><mask id="b" fill="#fff"><use xlink:href="#a"/></mask><path fill="#e5f5fa" d="M44.33.216c-2.022.51-4.05.992-6.083 1.45A241.616 241.616 0 0 1 .425 6.721c-.782-.079.3.471.494.683 3.374 2.485 7.782 2.927 11.932 2.94 10.159-.022 20.319-.005 30.478.007.335 0 .565-.092.773-.296.21-.204.229-.746.229-.746V.216Z" mask="url(#b)"/></g><path fill="#bfe6f2" d="M56.278 41.949c-6.415 3.053-13.118 5.52-19.898 7.558-9.153 2.651-18.517 4.6-27.98 5.684.546.795.948 2.017 1.871 2.364 15.48-.764 30.958-2.851 46.007-6.68z"/><path fill="#80cde6" d="M56.278 30.971C44.714 38.835 31.55 44.098 18.097 47.633c-3.79.955-7.576 1.95-11.434 2.59a14.89 14.89 0 0 0 .787 2.97c16.237-1.915 32.32-5.89 47.192-12.807.546-.257 1.091-.52 1.636-.785z"/><g transform="translate(6.48 15.335)"><mask id="d" fill="#fff"><use xlink:href="#c"/></mask><path fill="#40b3d9" d="M49.798.195c-5.826 6.994-13.212 12.567-21.053 17.076-8.364 4.746-17.313 8.41-26.501 11.158-.677.368-1.933.227-1.927 1.234a13.638 13.638 0 0 0-.315 3.11c14.923-2.858 29.624-7.609 42.867-15.253a90.491 90.491 0 0 0 6.929-4.436z" mask="url(#d)"/></g><path fill="#0098c3" d="M56.278.218c-.194-.404-.782-.175-1.454.113-2.536 1.088-12.792 6.13-14.33 12.834-.62.85-1.57-.21-2.247-.43-5.814-2.87-13.183-1.936-18.166 2.296-4.97 4.024-7.702 11.232-5.415 17.475.357.734.73 1.72-.048 2.325-.922.641-1.957 1.104-2.766 1.916-1.642 1.388-3.078 3.17-3.946 5.07 13.647-4.143 27.01-10.092 38.183-19.173 3.746-3.113 7.257-6.588 10.189-10.482z"/></g></svg>